<?xml version="1.0" encoding="UTF-8"?>
<svg id="Layer_2" data-name="Layer 2" xmlns="http://www.w3.org/2000/svg" viewBox="0 0 270.46 276.39">
  <defs>
    <style>
      .cls-1 {
        fill: #f2634b;
      }
    </style>
  </defs>
  <g id="Layer_2-2" data-name="Layer 2">
    <g>
      <path class="cls-1" d="m126.53,200.19c5.34-5.01,9.77-10.65,13.28-16.91,1.14-2.03,2.11-3.96,3-5.85-3.17-2.7-6.22-5.63-9.09-8.86-14.34-14.65-22.34-36.03-21.41-57.22.23-5.21.99-10.25,2.23-15.09-1.45-.84-2.96-1.69-4.54-2.55-18.38-9.85-30.57-17.2-36.58-22.05-6.01-4.84-9.02-10.52-9.02-17.04,0-3.51,1.63-6.39,4.89-8.65s7.39-3.38,12.4-3.38c9.18,0,17.87,3.84,26.06,11.53l22.3-41.59c-5.01-3.51-12.4-6.47-22.18-8.9-9.77-2.42-19.92-3.63-30.44-3.63-21.38,0-38,5.39-49.86,16.16-11.86,10.77-17.79,23.84-17.79,39.21,0,8.69,1.46,16.7,4.39,24.05,2.92,7.35,7.1,13.82,12.53,19.42,5.43,5.6,10.81,10.27,16.16,14.03,5.34,3.76,11.61,7.64,18.79,11.65,1.34.67,3.42,1.75,6.27,3.26,2.84,1.5,4.8,2.59,5.89,3.26,1.08.67,2.67,1.59,4.76,2.76,2.09,1.17,3.55,2.09,4.39,2.76.83.67,2.01,1.59,3.51,2.76,1.5,1.17,2.55,2.22,3.13,3.13.58.92,1.21,2.01,1.88,3.26.67,1.25,1.13,2.51,1.38,3.76.25,1.25.37,2.63.37,4.13,0,5.85-2.09,10.57-6.26,14.16-4.18,3.59-9.69,5.39-16.54,5.39-15.37,0-29.65-6.6-42.85-19.79L0,192.68c22.88,17.04,46.94,25.56,72.16,25.56,11.86,0,22.55-1.75,32.07-5.26,9.52-3.51,16.95-7.77,22.3-12.78Z"/>
      <path class="cls-1" d="m251.92,70.68l-22.3,41.59c-8.19-7.68-16.87-11.53-26.06-11.53-5.01,0-9.14,1.13-12.4,3.38s-4.89,5.14-4.89,8.65c0,6.51,3.01,12.19,9.02,17.04,6.01,4.85,18.2,12.19,36.58,22.05,6.18,3.34,11.36,6.6,15.54,9.77,4.17,3.18,8.14,7.06,11.9,11.65,3.76,4.6,6.55,10.07,8.39,16.41,1.83,6.35,2.76,13.62,2.76,21.8,0,4.01-.59,8.44-1.76,13.28-1.17,4.85-3.51,10.4-7.01,16.66-3.51,6.26-7.94,11.9-13.28,16.91-5.35,5.01-12.78,9.27-22.3,12.78-9.52,3.51-20.21,5.26-32.07,5.26-25.22,0-49.28-8.52-72.16-25.56l27.56-39.34c13.19,13.2,27.48,19.79,42.85,19.79,6.85,0,12.36-1.79,16.54-5.39,4.17-3.59,6.26-8.31,6.26-14.16,0-1.5-.12-2.88-.37-4.13-.25-1.25-.71-2.51-1.38-3.76-.67-1.25-1.3-2.34-1.88-3.26-.59-.92-1.63-1.96-3.13-3.13-1.5-1.17-2.67-2.09-3.51-2.76-.84-.67-2.3-1.59-4.39-2.76-2.09-1.17-3.68-2.09-4.76-2.76-1.09-.67-3.05-1.75-5.89-3.26-2.84-1.5-4.93-2.59-6.27-3.26-7.18-4.01-13.45-7.89-18.79-11.65-5.35-3.76-10.73-8.43-16.16-14.03-5.43-5.59-9.61-12.07-12.53-19.42-2.92-7.35-4.39-15.37-4.39-24.05,0-15.37,5.93-28.44,17.79-39.21,11.86-10.78,28.48-16.16,49.86-16.16,10.52,0,20.67,1.21,30.44,3.63,9.77,2.42,17.16,5.39,22.18,8.9Z"/>
    </g>
  </g>
</svg>